<svg xmlns="http://www.w3.org/2000/svg" width="763.908" height="815" viewBox="0 0 763.908 815">
  <g id="remote-team" transform="translate(-131.735 -142.027)">
    <path id="Path_7" data-name="Path 7" d="M263.591,90.021c87.4-57.6,210.215-45.856,287.478,39.635,42.244,46.759,59.4,111.078,103.251,156.833,49.368,51.475,108.368,101.545,130.745,171.784,23.781,74.654,2.91,160.245-50.271,217.339-64.72,69.436-159.843,48.565-249.749,47.461-368.152-4.616-641.782-250.351-293.6-553.281C220.545,144.306,234.693,108.985,263.591,90.021Z" transform="translate(100.832 230.17)" fill="#f37f14"/>
    <g id="Group_5" data-name="Group 5" transform="translate(652.793 589.573)">
      <path id="Path_16" data-name="Path 16" d="M544.741,473.8l4.849,7a72.687,72.687,0,0,0,7.947,11.853,19.445,19.445,0,0,0,5.253,4.714c2.424,1.482,5.792,3.367,7.947,3.906,2.694.539,3.233,4.041.943,5.118-2.29.943-9.563-.4-16.568-5.792-7-5.253-3.771,8.082-2.559,13.066,1.078,4.849,3.771,20.2,2.559,21.821-1.751,2.29-4.58.674-5.523-4.176-.943-4.984-4.984-19.531-7.543-18.723-2.559.674,3.367,25.592,3.367,25.592s2.155,5.118-.808,6.061c-5.253,1.616-9.7-25.323-9.968-27.882-.269-1.751-3.1-1.078-2.694.808.4,2.02,6.465,24.65,1.212,26.4-4.176,1.347-3.772-22.09-7.678-26.131s1.616,17.78-2.425,18.858c-1.482.4-2.694.539-4.041-12.527-1.347-13.335.808-49.838.808-49.838l25.323.269" transform="translate(-518.571 -473.8)" fill="#ffe3ca"/>
    </g>
    <g id="Group_13" data-name="Group 13" transform="translate(209.027 142.027)">
      <path id="Path_40" data-name="Path 40" d="M304,247.4" transform="translate(-171.107 -247.4)" fill="#ffd584"/>
      <g id="Group_8" data-name="Group 8" transform="translate(2.752 110.394)">
        <path id="Path_43" data-name="Path 43" d="M223.6,315.6" transform="translate(-223.6 -315.6)" fill="none" stroke="#ffecd3" stroke-miterlimit="10" stroke-width="0.1"/>
      </g>
      <g id="Group_10" data-name="Group 10" transform="translate(179.835 630.313)">
        <path id="Path_46" data-name="Path 46" d="M350.168,696.914s-10.2,40.467-2.59,33.183c7.446-7.284,34.963-71.869,34.963-71.869l-5.827-5.827Z" transform="translate(-325.726 -627.149)" fill="#0b4870"/>
        <path id="Path_47" data-name="Path 47" d="M389.654,667.879,362.946,636.8,333,690.7l24.442,15.863Z" transform="translate(-333 -636.8)" fill="#0b4870"/>
      </g>
      <path id="Path_54" data-name="Path 54" d="M569.43,607.565H402.383A14.093,14.093,0,0,1,388.3,593.482h0A14.093,14.093,0,0,1,402.383,579.4H569.268a14.093,14.093,0,0,1,14.083,14.083h0A13.854,13.854,0,0,1,569.43,607.565Z" transform="translate(-118.952 -41.999)" fill="#d3d3d3"/>
      <g id="Group_11" data-name="Group 11" transform="translate(318.676 556.339)">
        <rect id="Rectangle_6" data-name="Rectangle 6" width="14.244" height="143.739" transform="translate(13.684 187.163) rotate(-90)"/>
        <path id="Path_55" data-name="Path 55" d="M445.686,709.347a13.532,13.532,0,1,1-15.539-11.169A13.343,13.343,0,0,1,445.686,709.347Z" transform="translate(-418.774 -524.979)"/>
        <rect id="Rectangle_7" data-name="Rectangle 7" width="14.244" height="178.702" transform="translate(77.738)"/>
        <path id="Path_56" data-name="Path 56" d="M534.486,709.347a13.532,13.532,0,1,1-15.539-11.169A13.343,13.343,0,0,1,534.486,709.347Z" transform="translate(-363.836 -524.979)"/>
      </g>
      <path id="Path_57" data-name="Path 57" d="M593.6,708.595H435.937c-10.683,0-18.453-10.521-15.377-21.043l75.268-259.636A16.077,16.077,0,0,1,511.205,416.1H668.865c10.683,0,18.453,10.521,15.377,21.043L608.974,696.779A15.89,15.89,0,0,1,593.6,708.595Z" transform="translate(-99.414 -143.029)" fill="#d3d3d3"/>
      <path id="Path_58" data-name="Path 58" d="M572.463,708.595H435.037c-10.683,0-18.453-10.521-15.377-21.043l75.268-259.636A16.077,16.077,0,0,1,510.305,416.1H647.731c10.683,0,18.453,10.521,15.377,21.043L587.84,696.779A15.89,15.89,0,0,1,572.463,708.595Z" transform="translate(-99.971 -143.029)" fill="#707070"/>
      <path id="Path_59" data-name="Path 59" d="M596.43,607.565H429.383A14.093,14.093,0,0,1,415.3,593.482h0A14.093,14.093,0,0,1,429.383,579.4H596.268a14.093,14.093,0,0,1,14.083,14.083h0A13.853,13.853,0,0,1,596.43,607.565Z" transform="translate(-102.248 -41.999)" fill="#d3d3d3"/>
      <path id="Path_60" data-name="Path 60" d="M456.068,460.6,419,559.178l8.741,19.262,50.017-8.741L492,464.323Z" transform="translate(-99.959 -115.498)" fill="#fcd2b1"/>
      <path id="Path_61" data-name="Path 61" d="M469.473,431s-29.3,15.377-35.773,65.88l38.686,21.2Z" transform="translate(-90.864 -133.811)"/>
      <path id="Path_62" data-name="Path 62" d="M516.553,420.585,470.42,440.009,434,602.039l121.725,47.913L620.634,465.1s-10.521-38.524-71.384-48.4Z" transform="translate(-90.679 -142.658)"/>
      <path id="Path_63" data-name="Path 63" d="M589.773,600.261c0-2.1-1.295-14.892-1.942-17L567.759,454.9A26.927,26.927,0,1,0,516.123,469.8l23.795,110.232Z" transform="translate(-40.879 -132.14)" fill="#ffe3ca"/>
      <path id="Path_64" data-name="Path 64" d="M598.605,523.721,462.8,513.2,456,537.156l130.789,44.19a29.75,29.75,0,0,0,39.172-30.269h0A29.549,29.549,0,0,0,598.605,523.721Z" transform="translate(-77.068 -82.956)" fill="#ffe3ca"/>
      <path id="Path_65" data-name="Path 65" d="M559.411,434.761s17.32,7.446,24.766,52.445l-61.186,18.777s-39.981-44.837,2.752-74.783Z" transform="translate(-46.128 -133.687)"/>
      <path id="Path_66" data-name="Path 66" d="M434.361,542.6c5.018,13.273,30.107,13.921,43.543,8.9,13.273-5.018,27.032-12.626,22.014-26.061-5.018-13.273-27.194-21.2-41.762-17.967C440.512,511.523,429.343,529.166,434.361,542.6Z" transform="translate(-91.201 -86.944)" fill="#ffe3ca"/>
      <path id="Path_67" data-name="Path 67" d="M516.659,549.071,419.7,536.607l1.457-11.007,96.959,12.464a5.278,5.278,0,0,1,4.694,6.151h0A5.687,5.687,0,0,1,516.659,549.071Z" transform="translate(-99.526 -75.284)" fill="#f2f2f2"/>
      <path id="Path_68" data-name="Path 68" d="M487.349,586.219l-128.523-16.51a16.323,16.323,0,0,1-14.244-14.083L331.146,462.39a12.562,12.562,0,0,1,14.082-14.244l118,15.216a10.993,10.993,0,0,1,9.55,9.388Z" transform="translate(-154.387 -123.277)" fill="#f2f2f2"/>
      <path id="Path_69" data-name="Path 69" d="M361.407,685.5l-33.345,13.759-21.043,1.619a21.7,21.7,0,0,0-19.748,17.158l-.971,4.37L400.579,736.65l2.266-45.97Z" transform="translate(-182.057 23.642)"/>
      <path id="Path_70" data-name="Path 70" d="M374.138,709.983l11.169-50.017L344.031,654.3,332.7,704.8Z" transform="translate(-153.351 4.34)" fill="#ffe3ca"/>
      <path id="Path_71" data-name="Path 71" d="M619.263,580.6s-3.237,27.679-52.931,31.4H446.874l-56.33,157.174-59.244-9.55L390.544,528.8l135.807,15.054Z" transform="translate(-154.217 -73.304)" fill="#f5f5f5"/>
      <path id="Path_72" data-name="Path 72" d="M305.586,636.281l-35.773-5.342-18.939-9.55a22.156,22.156,0,0,0-25.9,4.532l-3.075,3.237,90.646,70.9,25.575-38.2Z" transform="translate(-221.9 -17.461)"/>
      <path id="Path_73" data-name="Path 73" d="M306.459,670.656l31.079-39.5L304.84,605.1,273.6,644.92Z" transform="translate(-189.914 -26.099)" fill="#ffe3ca"/>
      <path id="Path_74" data-name="Path 74" d="M528.348,544.121l-92.1-27.518c-3.885-1.133-7.608-2.59-11.493-3.885-7.931-3.075-28-7.284-43.542,16.51C361.3,559.822,281.5,674.748,281.5,674.748l48.722,35.935L436.569,575.2a47.319,47.319,0,0,1,38.363-19.586l82.229-.162Z" transform="translate(-185.027 -84.741)" fill="#fff"/>
      <path id="Path_75" data-name="Path 75" d="M547.693,422.63c1.619-3.076,30.107-53.9,4.047-66.69,0,0-3.4-26.87-33.345-23.956s-21.852,11.654-40.953,7.284-37.068,5.5-35.611,21.528,13.6,22.823,35.611,18.939a129.147,129.147,0,0,1,39.5-.971l18.453,5.342Z" transform="translate(-85.885 -195.206)"/>
      <g id="Group_12" data-name="Group 12" transform="translate(418.428 217.874)">
        <path id="Path_76" data-name="Path 76" d="M527.342,446.585,525.076,382,480.4,397.863l3.561,51.8c.809,11.978,7.446,21.367,19.424,20.557l3.723-.162A22.235,22.235,0,0,0,527.342,446.585Z" transform="translate(-480.4 -382)" fill="#ffe3ca"/>
      </g>
      <path id="Path_77" data-name="Path 77" d="M520.758,387.5s8.417,53.9-37.553,56.977L481.1,418.9Z" transform="translate(-61.539 -160.723)" fill="#fcd2b1"/>
      <path id="Path_78" data-name="Path 78" d="M499.593,453.788h1.619a41.5,41.5,0,0,0,39.5-43.542L538.441,363.3a10.722,10.722,0,0,0-11.331-10.2L472.4,355.7a19.3,19.3,0,0,0-18.291,20.072l1.781,38.363A41.983,41.983,0,0,0,499.593,453.788Z" transform="translate(-78.251 -182.012)" fill="#ffe3ca"/>
      <path id="Path_79" data-name="Path 79" d="M501.1,385.34a14.02,14.02,0,1,0,13.273-14.73A14.087,14.087,0,0,0,501.1,385.34Z" transform="translate(-49.17 -171.189)" fill="#ffe3ca"/>
      <path id="Path_81" data-name="Path 81" d="M455.1,371.218s14.73,2.266,36.258-2.914c21.367-5.342,38.363,11.978,38.363,11.978s4.532,7.932,5.665,7.77,7.608-2.752,7.608-2.752l-.324-24.118-15.7-12.3L483.427,347.1l-25.737,5.665Z" transform="translate(-77.624 -185.718)"/>
    </g>
  </g>
</svg>
