<svg xmlns="http://www.w3.org/2000/svg" width="669.879" height="720.624" viewBox="0 0 669.879 720.624">
  <g id="Group_1" data-name="Group 1" transform="translate(-543.868 -17)">
    <g id="undraw_agreement_re_d4dv" transform="translate(543.868 17)">
      <path id="Path_124" data-name="Path 124" d="M920.132,809.952v-72.34S891.94,788.9,920.132,809.952Z" transform="translate(-907.602 -89.329)" fill="#f1f1f1"/>
      <path id="Path_125" data-name="Path 125" d="M856.214,809.939l53.29-48.921S852.659,774.933,856.214,809.939Z" transform="translate(-845.427 -89.329)" fill="#f1f1f1"/>
      <path id="Path_126" data-name="Path 126" d="M252.392,408.518,535.178,573.8a4.326,4.326,0,0,0,5.911-1.55L722.938,261.107a4.326,4.326,0,0,0-1.55-5.911L438.6,89.918a4.326,4.326,0,0,0-5.911,1.55L250.843,402.606a4.326,4.326,0,0,0,1.549,5.912Z" transform="translate(-53.648 -89.329)" fill="#fff"/>
      <path id="Path_127" data-name="Path 127" d="M252.392,408.518,535.178,573.8a4.326,4.326,0,0,0,5.911-1.55L722.938,261.107a4.326,4.326,0,0,0-1.55-5.911L438.6,89.918a4.326,4.326,0,0,0-5.911,1.55L250.843,402.606a4.326,4.326,0,0,0,1.549,5.912Zm468.124-151.83a2.6,2.6,0,0,1,.93,3.547L539.6,571.373a2.6,2.6,0,0,1-3.547.93L253.264,407.025a2.6,2.6,0,0,1-.93-3.547L434.184,92.34a2.6,2.6,0,0,1,3.547-.93Z" transform="translate(-53.648 -89.329)" fill="#3f3d56"/>
      <path id="Path_128" data-name="Path 128" d="M319.55,287.673l70.137,40.992a4.326,4.326,0,0,0,5.911-1.55l40.992-70.137a4.326,4.326,0,0,0-1.55-5.911L364.9,210.075a4.326,4.326,0,0,0-5.911,1.55L318,281.762a4.326,4.326,0,0,0,1.55,5.911ZM434.168,252.56a2.6,2.6,0,0,1,.93,3.547l-40.992,70.137a2.6,2.6,0,0,1-3.547.93l-70.137-40.992a2.6,2.6,0,0,1-.93-3.547L360.484,212.5a2.6,2.6,0,0,1,3.547-.93Z" transform="translate(165.542 -89.329)" fill="#f2f2f2"/>
      <path id="Path_129" data-name="Path 129" d="M304.855,308.028l70.137,40.992a3.893,3.893,0,0,0,5.32-1.4L421.3,277.489a3.893,3.893,0,0,0-1.4-5.32l-70.137-40.992a3.893,3.893,0,0,0-5.32,1.4L303.46,302.708A3.893,3.893,0,0,0,304.855,308.028Z" transform="translate(195.368 -89.329)" fill="#f37f14"/>
      <path id="Path_130" data-name="Path 130" d="M365.909,255.132,585.272,383.343a3.889,3.889,0,1,0,3.925-6.715L369.833,248.418a3.889,3.889,0,0,0-3.925,6.715Z" transform="translate(-34.974 -89.329)" fill="#ccc"/>
      <path id="Path_131" data-name="Path 131" d="M379.427,309.225l166.388,97.248a3.889,3.889,0,1,0,3.925-6.715L383.352,302.51a3.889,3.889,0,0,0-3.925,6.715Z" transform="translate(-9.035 -89.329)" fill="#ccc"/>
      <path id="Path_132" data-name="Path 132" d="M437.814,170.509l97,56.692a3.889,3.889,0,0,0,3.925-6.715l-97-56.692a3.889,3.889,0,1,0-3.925,6.715Z" transform="translate(-56.418 -89.329)" fill="#ccc"/>
      <path id="Path_133" data-name="Path 133" d="M451.332,207.788l72.79,42.543a3.889,3.889,0,1,0,3.925-6.715l-72.79-42.543a3.889,3.889,0,1,0-3.925,6.715Z" transform="translate(-59.247 -89.329)" fill="#ccc"/>
      <path id="Path_134" data-name="Path 134" d="M392.945,301.393,612.309,429.6a3.889,3.889,0,1,0,3.925-6.715L396.87,294.678a3.889,3.889,0,0,0-3.925,6.715Z" transform="translate(-89.047 -89.329)" fill="#ccc"/>
      <path id="Path_135" data-name="Path 135" d="M406.464,355.485l166.388,97.248a3.889,3.889,0,0,0,3.925-6.715L410.389,348.77a3.889,3.889,0,0,0-3.925,6.715Z" transform="translate(-63.109 -89.329)" fill="#ccc"/>
      <path id="Path_136" data-name="Path 136" d="M419.984,347.653l219.363,128.21a3.889,3.889,0,0,0,3.925-6.715L423.908,340.938a3.889,3.889,0,0,0-3.925,6.715Z" transform="translate(-143.123 -89.329)" fill="#ccc"/>
      <path id="Path_137" data-name="Path 137" d="M433.5,370.783,652.865,498.994a3.889,3.889,0,0,0,3.925-6.715L437.426,364.069a3.889,3.889,0,1,0-3.925,6.715Z" transform="translate(-170.159 -89.329)" fill="#ccc"/>
      <path id="Path_138" data-name="Path 138" d="M5.111.619a84.7,84.7,0,0,1,8.2,11.47c2.162,3.649,4.282,7.55,4.759,11.829a11.683,11.683,0,0,1-3.5,9.985A8.222,8.222,0,0,1,4.926,35,9.809,9.809,0,0,1,0,26.241a12.959,12.959,0,0,1,5.536-9.814c6.484-4.7,16.61-4.452,23.521-.877,7.784,4.027,11.806,14.561,5.69,21.773-1.272,1.5-3.389-.176-3.07-1.794a8.721,8.721,0,0,1,17.279,2.135L46.21,36.057A20.99,20.99,0,0,1,67.089,38.3,19.47,19.47,0,0,1,71,42.073c1.346,1.755,3.606,2.89,5.436,4.155l13.19,9.114c1.94,1.341.1,4.535-1.861,3.184L75.816,50.271c-1.991-1.376-3.994-2.734-5.973-4.127-1.414-1-2.285-2.6-3.572-3.786A17.288,17.288,0,0,0,48.02,39.271a1.866,1.866,0,0,1-2.749-1.607,5.048,5.048,0,1,0-10.026-1.188l-3.07-1.794c3.945-4.652,1.318-11.787-3.227-14.909-5.083-3.491-12.593-4.1-18.323-1.927a10.811,10.811,0,0,0-6.365,5.84A6.443,6.443,0,0,0,5.722,31.06a4.623,4.623,0,0,0,6.427.069,8.269,8.269,0,0,0,2.191-7.459c-.591-3.695-2.633-7.1-4.533-10.257A78.8,78.8,0,0,0,2.47,3.195C.949,1.394,3.573-1.2,5.111.619Z" transform="translate(265.943 317.264)" fill="#f37f14"/>
      <path id="Path_139" data-name="Path 139" d="M664.352,548.508a8.669,8.669,0,0,0-.872,1.051l-40.849-1-4.765-8.708-14.082,5.474,6.938,16.235a6.591,6.591,0,0,0,6.852,3.954l46.151-5.575a8.649,8.649,0,1,0,.627-11.432Z" transform="translate(-362.813 -89.329)" fill="#ffb7b7"/>
      <path id="Path_140" data-name="Path 140" d="M504.934,707.256h13.431l6.39-51.807H504.932Z" transform="translate(-336.555 0)" fill="#ffb7b7"/>
      <path id="Path_141" data-name="Path 141" d="M711.871,809.6l43.308,0v-.547A16.857,16.857,0,0,0,738.323,792.2H711.87Z" transform="translate(-546.917 -89.329)" fill="#2f2e41"/>
      <path id="Path_142" data-name="Path 142" d="M410.794,706.958l12.351-5.277L408.67,651.529l-18.229,7.788Z" transform="translate(-120.454 0)" fill="#ffb7b7"/>
      <path id="Path_143" data-name="Path 143" d="M594.84,809.6l39.826-17.014-.215-.5a16.858,16.858,0,0,0-22.123-8.88h0L588,793.6Z" transform="translate(-302.536 -89.329)" fill="#2f2e41"/>
      <path id="Path_144" data-name="Path 144" d="M515.621,470.4l.972,15.739L488.2,489.179,458.5,492.358l8.744-23.9Z" transform="translate(-281.957 0)" fill="#ffb7b7"/>
      <path id="Path_145" data-name="Path 145" d="M733.179,575.672l11.029-76.887-19.117-6.265-5.615-7.7-27.323,1.617-4.011,8.985-14.569,6.884,2.239,41.582-1.633,34.784Z" transform="translate(-497.649 -89.329)" fill="#2f2e41"/>
      <path id="Path_146" data-name="Path 146" d="M665.022,555.067l19.445-7.78-.083-.346c-.083-.349-8.359-34.932-9.458-40.49-1.145-5.79-5.327-7.391-5.5-7.456l-.13-.048-7.7,2.342-3.38,26.554Z" transform="translate(-422.551 -89.329)" fill="#2f2e41"/>
      <path id="Path_147" data-name="Path 147" d="M730.5,787.181l25.884-5.31-41.37-114.154-14.159-38.936s-8.98-31.219-13.037-43.3l-2.448-16.21-57.962,6.416s-16.189,23.774-11.271,62.526l-2.224,145.65L639.8,785.19l21.68-146.9,38.051,80.527s11.993,34.364,20.574,41.812Z" transform="translate(-450.164 -89.329)" fill="#2f2e41"/>
      <path id="Path_148" data-name="Path 148" d="M757.865,581.093a8.684,8.684,0,0,0-1.364.075l-27.04-30.634,3.145-9.415-13.589-6.6-7.188,16.126a6.591,6.591,0,0,0,1.759,7.712l35.467,30.052a8.649,8.649,0,1,0,8.809-7.313Z" transform="translate(-557.377 -89.329)" fill="#ffb7b7"/>
      <path id="Path_149" data-name="Path 149" d="M749.66,553.516l11.28-26.533-4.4-18.481-4.74-5.989a2.73,2.73,0,0,0-2.194.02c-1.748.7-3.237,2.86-4.425,6.41L734.61,539.054Z" transform="translate(-575.418 -89.329)" fill="#2f2e41"/>
      <path id="Path_150" data-name="Path 150" d="M740.976,474.987v-20a26.8,26.8,0,1,0-53.609,0v20a3.6,3.6,0,0,0,3.6,3.6h46.407a3.6,3.6,0,0,0,3.6-3.6Z" transform="translate(-508.211 -89.329)" fill="#2f2e41"/>
      <ellipse id="Ellipse_9" data-name="Ellipse 9" cx="19.652" cy="19.652" rx="19.652" ry="19.652" transform="translate(191.816 349.49)" fill="#ffb7b7"/>
      <path id="Path_151" data-name="Path 151" d="M727.433,456.584a21.227,21.227,0,0,0-21.2-21.2h-4a21.227,21.227,0,0,0-21.2,21.2v.4h8.454l2.884-8.075.577,8.075h4.37l1.455-4.074.291,4.074h28.377Z" transform="translate(-488.328 -89.329)" fill="#2f2e41"/>
      <path id="Path_152" data-name="Path 152" d="M730.358,480.837a3.547,3.547,0,0,0,.282-3.766c-4.24-8.064-10.175-22.964-2.3-32.153l.566-.66H706.036V478.6l20.779,3.666a3.682,3.682,0,0,0,.637.056,3.586,3.586,0,0,0,2.906-1.484Z" transform="translate(-516.956 -89.329)" fill="#2f2e41"/>
      <path id="Path_153" data-name="Path 153" d="M247.551,695.94l-12.138,4.338L212.9,655.523l17.915-6.4Z" transform="translate(232.677 0)" fill="#ffe3ca"/>
      <path id="Path_154" data-name="Path 154" d="M472.861,795.929,467.24,780.2l-23.9,8.543a16.2,16.2,0,0,0-9.79,20.679l.177.495Z" transform="translate(14.668 -89.329)" fill="#2f2e41"/>
      <path id="Path_155" data-name="Path 155" d="M310.857,707.946h-12.89l-6.133-49.719h19.025Z" transform="translate(90.439 0)" fill="#ffe3ca"/>
      <path id="Path_156" data-name="Path 156" d="M557.112,793.066H531.726a16.178,16.178,0,0,0-16.178,16.178v.525l41.564,0Z" transform="translate(-152.529 -89.329)" fill="#2f2e41"/>
      <path id="Path_157" data-name="Path 157" d="M517.847,479.629l-5.606-11.077s-20.884,5.232-22.782,17.336Z" transform="translate(-87.175 -89.329)" fill="#f1f1f1"/>
      <path id="Path_158" data-name="Path 158" d="M294.267,516.96l-15.245,85.074,40.48,71.588-24.183,9.463-41.006-69.394-5.257-18.926L245.9,693.6l-21.81-.662-10-92.287,16.038-85.793Z" transform="translate(159.537 0)" fill="#2f2e41"/>
      <path id="Path_159" data-name="Path 159" d="M503.522,626.4c22.4,0,36.616-4.284,36.935-4.352l.516-.11-11.666-54.086-.525-49.889c0-21.141-13.914-36.728-15.845-38.166a9.1,9.1,0,0,0-4.837-5.945c-4.641-2.106-10.313.421-10.552.53l-17.023,6.382-.08.236c-.205.6-22.627,74.214-22.627,74.214s1.357,64.315,1.83,66.422C459.647,621.636,491.078,626.4,503.522,626.4Z" transform="translate(-78.657 -89.329)" fill="#3f3d56"/>
      <ellipse id="Ellipse_10" data-name="Ellipse 10" cx="23.008" cy="23.008" rx="23.008" ry="23.008" transform="translate(384.647 329.719)" fill="#ffe3ca"/>
      <path id="Path_160" data-name="Path 160" d="M306.02,432.715l-40.253,56.162-5.944-26.227Z" transform="translate(127.289 0)" opacity="0.2"/>
      <path id="Path_161" data-name="Path 161" d="M567.371,560.257a9.874,9.874,0,0,0,14.825-3.073l34.647,5.546-7.506-16.617-31.75-2.719a9.927,9.927,0,0,0-10.215,16.863Z" transform="translate(-260.262 -89.329)" fill="#ffe3ca"/>
      <path id="Path_162" data-name="Path 162" d="M361.741,455.838l-12.449-1.221-3.45,17.366,15.665.277Z" transform="translate(-14.451 0)" fill="#f1f1f1"/>
      <path id="Path_163" data-name="Path 163" d="M490.806,567.362l60.97-5.429,30.786-48.96.095-.433a16.855,16.855,0,0,0-31.467-11.286l-18.072,35.251-36.473,5.513Z" transform="translate(-153.721 -89.329)" fill="#3f3d56"/>
    </g>
    <path id="Path_166" data-name="Path 166" d="M487.561,371.055c.7-1.33,13.019-23.308,1.75-28.837,0,0-1.47-11.619-14.419-10.359s-9.449,5.039-17.708,3.15-16.028,2.38-15.4,9.309,5.879,9.869,15.4,8.189a55.844,55.844,0,0,1,17.078-.42l7.979,2.31Z" transform="translate(484.756 8.15)"/>
  </g>
</svg>
