<?xml version="1.0" encoding="iso-8859-1"?>
<!-- Generator: Adobe Illustrator 19.0.0, SVG Export Plug-In . SVG Version: 6.00 Build 0)  -->
<svg version="1.1" id="Capa_1" xmlns="http://www.w3.org/2000/svg" xmlns:xlink="http://www.w3.org/1999/xlink" x="0px" y="0px"
	 viewBox="0 0 50 50" style="enable-background:new 0 0 50 50;" xml:space="preserve">
<g>
	<path d="M36.885,32.535C36.712,32.206,36.372,32,36,32H26V0h-2v32H14c-0.372,0-0.712,0.206-0.885,0.535
		c-0.173,0.329-0.149,0.726,0.061,1.032l11,16C24.362,49.838,24.671,50,25,50c0.329,0,0.638-0.162,0.824-0.434l11-16
		C37.035,33.261,37.058,32.863,36.885,32.535z M24,34v11.78L15.901,34H24z M26,45.78V34h8.099L26,45.78z"/>
</g>
<g>
</g>
<g>
</g>
<g>
</g>
<g>
</g>
<g>
</g>
<g>
</g>
<g>
</g>
<g>
</g>
<g>
</g>
<g>
</g>
<g>
</g>
<g>
</g>
<g>
</g>
<g>
</g>
<g>
</g>
</svg>
