<svg xmlns="http://www.w3.org/2000/svg" width="112.464" height="109.654" viewBox="0 0 112.464 109.654">
  <path id="Icon_awesome-github" data-name="Icon awesome-github" d="M37.616,88.856c0,.453-.522.816-1.179.816-.748.068-1.27-.295-1.27-.816,0-.453.522-.816,1.179-.816C37.027,87.971,37.616,88.334,37.616,88.856Zm-7.052-1.02c-.159.453.295.975.975,1.111a1.064,1.064,0,0,0,1.406-.453c.136-.453-.295-.975-.975-1.179A1.164,1.164,0,0,0,30.565,87.835Zm10.022-.385c-.658.159-1.111.59-1.043,1.111.068.453.658.748,1.338.59.658-.159,1.111-.59,1.043-1.043C41.856,87.677,41.244,87.382,40.587,87.45ZM55.506.562C24.057.562,0,24.438,0,55.887a56.846,56.846,0,0,0,38.433,54.237c2.9.522,3.923-1.27,3.923-2.744,0-1.406-.068-9.16-.068-13.922,0,0-15.872,3.4-19.2-6.757,0,0-2.585-6.6-6.3-8.3,0,0-5.192-3.56.363-3.492a11.969,11.969,0,0,1,8.752,5.85C30.86,89.513,39.181,87,42.423,85.5a12.6,12.6,0,0,1,3.628-7.641C33.376,76.453,20.588,74.616,20.588,52.8c0-6.235,1.723-9.364,5.351-13.355-.59-1.474-2.517-7.55.59-15.4,4.739-1.474,15.645,6.122,15.645,6.122a53.565,53.565,0,0,1,28.479,0S81.559,22.556,86.3,24.053c3.106,7.868,1.179,13.922.59,15.4,3.628,4.013,5.85,7.142,5.85,13.355,0,21.881-13.355,23.626-26.03,25.055,2.086,1.791,3.855,5.192,3.855,10.521,0,7.641-.068,17.1-.068,18.956,0,1.474,1.043,3.265,3.923,2.744,22.674-7.528,38.047-29.046,38.047-54.191C112.464,24.438,86.955.562,55.506.562Zm-33.467,78.2c-.295.227-.227.748.159,1.179.363.363.884.521,1.179.227.295-.227.227-.748-.159-1.179C22.856,78.63,22.334,78.471,22.039,78.766ZM19.59,76.929c-.159.295.068.658.522.884a.675.675,0,0,0,.975-.159c.159-.295-.068-.658-.522-.884C20.112,76.634,19.749,76.7,19.59,76.929ZM26.937,85c-.363.295-.227.975.295,1.406.522.522,1.179.59,1.474.227.295-.295.159-.975-.295-1.406C27.912,84.706,27.232,84.638,26.937,85Zm-2.585-3.333c-.363.227-.363.816,0,1.338s.975.748,1.27.522a1.034,1.034,0,0,0,0-1.406C25.3,81.6,24.715,81.373,24.352,81.668Z" transform="translate(0 -0.563)" fill="#fff"/>
</svg>
