<svg xmlns="http://www.w3.org/2000/svg" width="118.201" height="118.175" viewBox="0 0 118.201 118.175">
  <path id="Icon_awesome-instagram" data-name="Icon awesome-instagram" d="M59.108,31.027a30.3,30.3,0,1,0,30.3,30.3A30.25,30.25,0,0,0,59.108,31.027Zm0,50a19.7,19.7,0,1,1,19.7-19.7,19.734,19.734,0,0,1-19.7,19.7Zm38.6-51.236a7.067,7.067,0,1,1-7.067-7.067A7.051,7.051,0,0,1,97.713,29.787ZM117.78,36.96c-.448-9.467-2.611-17.852-9.546-24.761C101.326,5.29,92.94,3.128,83.474,2.653c-9.757-.554-39-.554-48.757,0-9.44.448-17.826,2.611-24.761,9.519S.885,27.467.41,36.933c-.554,9.757-.554,39,0,48.757.448,9.467,2.611,17.852,9.546,24.761S25.25,119.522,34.717,120c9.757.554,39,.554,48.757,0,9.467-.448,17.852-2.611,24.761-9.546,6.909-6.909,9.071-15.294,9.546-24.761.554-9.757.554-38.974,0-48.731Zm-12.6,59.2a19.943,19.943,0,0,1-11.233,11.233c-7.779,3.085-26.238,2.373-34.834,2.373s-27.081.686-34.834-2.373A19.943,19.943,0,0,1,13.041,96.159c-3.085-7.779-2.373-26.238-2.373-34.834s-.686-27.081,2.373-34.834A19.943,19.943,0,0,1,24.274,15.258c7.779-3.085,26.238-2.373,34.834-2.373S86.19,12.2,93.942,15.258a19.943,19.943,0,0,1,11.233,11.233c3.085,7.779,2.373,26.238,2.373,34.834S108.261,88.406,105.176,96.159Z" transform="translate(0.005 -2.238)" fill="#fff"/>
</svg>
