<svg xmlns="http://www.w3.org/2000/svg" width="111.447" height="99.064" viewBox="0 0 111.447 99.064">
  <path id="Icon_awesome-external-link-alt" data-name="Icon awesome-external-link-alt" d="M111.447,4.644V29.407a4.647,4.647,0,0,1-7.927,3.284l-6.909-6.909L49.493,72.9a4.643,4.643,0,0,1-6.567,0l-4.378-4.378a4.643,4.643,0,0,1,0-6.567L85.667,14.836,78.759,7.927A4.647,4.647,0,0,1,82.042,0H106.8A4.644,4.644,0,0,1,111.447,4.644ZM78.754,52.395l-3.1,3.1a4.643,4.643,0,0,0-1.36,3.284V86.681H12.383V24.766h51.08a4.644,4.644,0,0,0,3.283-1.36l3.1-3.1a4.644,4.644,0,0,0-3.283-7.927H9.287A9.287,9.287,0,0,0,0,21.67V89.777a9.287,9.287,0,0,0,9.287,9.287H77.394a9.287,9.287,0,0,0,9.287-9.287v-34.1A4.644,4.644,0,0,0,78.754,52.395Z"/>
</svg>
