<svg xmlns="http://www.w3.org/2000/svg" width="135.011" height="109.654" viewBox="0 0 135.011 109.654">
  <path id="Icon_awesome-twitter" data-name="Icon awesome-twitter" d="M121.133,30.708c.086,1.2.086,2.4.086,3.6,0,36.58-27.842,78.728-78.728,78.728A78.194,78.194,0,0,1,0,100.613a57.243,57.243,0,0,0,6.682.343A55.416,55.416,0,0,0,41.035,89.134a27.719,27.719,0,0,1-25.872-19.19,34.894,34.894,0,0,0,5.226.428,29.265,29.265,0,0,0,7.282-.942A27.674,27.674,0,0,1,5.482,42.274v-.343A27.867,27.867,0,0,0,17.99,45.443,27.712,27.712,0,0,1,9.423,8.435,78.652,78.652,0,0,0,66.477,37.39a31.237,31.237,0,0,1-.685-6.339A27.7,27.7,0,0,1,113.68,12.119a54.478,54.478,0,0,0,17.562-6.682,27.6,27.6,0,0,1-12.165,15.249A55.471,55.471,0,0,0,135.011,16.4a59.481,59.481,0,0,1-13.878,14.306Z" transform="translate(0 -3.381)" fill="#fff"/>
</svg>
